<svg id="wave" style="transform:rotate(180deg); transition: 0.3s" viewBox="0 0 1440 260" version="1.1" xmlns="http://www.w3.org/2000/svg"><defs><linearGradient id="sw-gradient-0" x1="0" x2="0" y1="1" y2="0"><stop stop-color="rgba(255, 204, 0, 0.68)" offset="0%"></stop><stop stop-color="rgba(255, 204, 0, 0.43)" offset="100%"></stop></linearGradient></defs><path style="transform:translate(0, 0px); opacity:1" fill="url(#sw-gradient-0)" d="M0,234L80,195C160,156,320,78,480,47.7C640,17,800,35,960,65C1120,95,1280,139,1440,151.7C1600,165,1760,147,1920,130C2080,113,2240,95,2400,91C2560,87,2720,95,2880,112.7C3040,130,3200,156,3360,143C3520,130,3680,78,3840,73.7C4000,69,4160,113,4320,108.3C4480,104,4640,52,4800,26C4960,0,5120,0,5280,26C5440,52,5600,104,5760,125.7C5920,147,6080,139,6240,121.3C6400,104,6560,78,6720,73.7C6880,69,7040,87,7200,86.7C7360,87,7520,69,7680,56.3C7840,43,8000,35,8160,60.7C8320,87,8480,147,8640,147.3C8800,147,8960,87,9120,60.7C9280,35,9440,43,9600,65C9760,87,9920,121,10080,138.7C10240,156,10400,156,10560,143C10720,130,10880,104,11040,78C11200,52,11360,26,11440,13L11520,0L11520,260L11440,260C11360,260,11200,260,11040,260C10880,260,10720,260,10560,260C10400,260,10240,260,10080,260C9920,260,9760,260,9600,260C9440,260,9280,260,9120,260C8960,260,8800,260,8640,260C8480,260,8320,260,8160,260C8000,260,7840,260,7680,260C7520,260,7360,260,7200,260C7040,260,6880,260,6720,260C6560,260,6400,260,6240,260C6080,260,5920,260,5760,260C5600,260,5440,260,5280,260C5120,260,4960,260,4800,260C4640,260,4480,260,4320,260C4160,260,4000,260,3840,260C3680,260,3520,260,3360,260C3200,260,3040,260,2880,260C2720,260,2560,260,2400,260C2240,260,2080,260,1920,260C1760,260,1600,260,1440,260C1280,260,1120,260,960,260C800,260,640,260,480,260C320,260,160,260,80,260L0,260Z"></path><defs><linearGradient id="sw-gradient-1" x1="0" x2="0" y1="1" y2="0"><stop stop-color="rgba(255, 204, 0, 1)" offset="0%"></stop><stop stop-color="rgba(255, 204, 0, 0.61)" offset="100%"></stop></linearGradient></defs><path style="transform:translate(0, 50px); opacity:0.9" fill="url(#sw-gradient-1)" d="M0,26L80,21.7C160,17,320,9,480,34.7C640,61,800,121,960,151.7C1120,182,1280,182,1440,164.7C1600,147,1760,113,1920,108.3C2080,104,2240,130,2400,130C2560,130,2720,104,2880,95.3C3040,87,3200,95,3360,108.3C3520,121,3680,139,3840,130C4000,121,4160,87,4320,99.7C4480,113,4640,173,4800,190.7C4960,208,5120,182,5280,160.3C5440,139,5600,121,5760,104C5920,87,6080,69,6240,69.3C6400,69,6560,87,6720,108.3C6880,130,7040,156,7200,151.7C7360,147,7520,113,7680,112.7C7840,113,8000,147,8160,156C8320,165,8480,147,8640,134.3C8800,121,8960,113,9120,130C9280,147,9440,191,9600,190.7C9760,191,9920,147,10080,121.3C10240,95,10400,87,10560,73.7C10720,61,10880,43,11040,65C11200,87,11360,147,11440,177.7L11520,208L11520,260L11440,260C11360,260,11200,260,11040,260C10880,260,10720,260,10560,260C10400,260,10240,260,10080,260C9920,260,9760,260,9600,260C9440,260,9280,260,9120,260C8960,260,8800,260,8640,260C8480,260,8320,260,8160,260C8000,260,7840,260,7680,260C7520,260,7360,260,7200,260C7040,260,6880,260,6720,260C6560,260,6400,260,6240,260C6080,260,5920,260,5760,260C5600,260,5440,260,5280,260C5120,260,4960,260,4800,260C4640,260,4480,260,4320,260C4160,260,4000,260,3840,260C3680,260,3520,260,3360,260C3200,260,3040,260,2880,260C2720,260,2560,260,2400,260C2240,260,2080,260,1920,260C1760,260,1600,260,1440,260C1280,260,1120,260,960,260C800,260,640,260,480,260C320,260,160,260,80,260L0,260Z"></path><defs><linearGradient id="sw-gradient-2" x1="0" x2="0" y1="1" y2="0"><stop stop-color="rgba(255, 204, 0, 1)" offset="0%"></stop><stop stop-color="rgba(255, 204, 0, 0.62)" offset="100%"></stop></linearGradient></defs><path style="transform:translate(0, 100px); opacity:0.8" fill="url(#sw-gradient-2)" d="M0,208L80,212.3C160,217,320,225,480,195C640,165,800,95,960,60.7C1120,26,1280,26,1440,26C1600,26,1760,26,1920,60.7C2080,95,2240,165,2400,195C2560,225,2720,217,2880,190.7C3040,165,3200,121,3360,108.3C3520,95,3680,113,3840,108.3C4000,104,4160,78,4320,73.7C4480,69,4640,87,4800,82.3C4960,78,5120,52,5280,39C5440,26,5600,26,5760,43.3C5920,61,6080,95,6240,125.7C6400,156,6560,182,6720,199.3C6880,217,7040,225,7200,195C7360,165,7520,95,7680,91C7840,87,8000,147,8160,151.7C8320,156,8480,104,8640,104C8800,104,8960,156,9120,177.7C9280,199,9440,191,9600,182C9760,173,9920,165,10080,134.3C10240,104,10400,52,10560,39C10720,26,10880,52,11040,73.7C11200,95,11360,113,11440,121.3L11520,130L11520,260L11440,260C11360,260,11200,260,11040,260C10880,260,10720,260,10560,260C10400,260,10240,260,10080,260C9920,260,9760,260,9600,260C9440,260,9280,260,9120,260C8960,260,8800,260,8640,260C8480,260,8320,260,8160,260C8000,260,7840,260,7680,260C7520,260,7360,260,7200,260C7040,260,6880,260,6720,260C6560,260,6400,260,6240,260C6080,260,5920,260,5760,260C5600,260,5440,260,5280,260C5120,260,4960,260,4800,260C4640,260,4480,260,4320,260C4160,260,4000,260,3840,260C3680,260,3520,260,3360,260C3200,260,3040,260,2880,260C2720,260,2560,260,2400,260C2240,260,2080,260,1920,260C1760,260,1600,260,1440,260C1280,260,1120,260,960,260C800,260,640,260,480,260C320,260,160,260,80,260L0,260Z"></path><defs><linearGradient id="sw-gradient-3" x1="0" x2="0" y1="1" y2="0"><stop stop-color="rgba(255, 204, 0, 1)" offset="0%"></stop><stop stop-color="rgba(255, 204, 0, 0.6)" offset="100%"></stop></linearGradient></defs><path style="transform:translate(0, 150px); opacity:0.7" fill="url(#sw-gradient-3)" d="M0,78L80,86.7C160,95,320,113,480,138.7C640,165,800,199,960,203.7C1120,208,1280,182,1440,160.3C1600,139,1760,121,1920,112.7C2080,104,2240,104,2400,104C2560,104,2720,104,2880,125.7C3040,147,3200,191,3360,203.7C3520,217,3680,199,3840,182C4000,165,4160,147,4320,125.7C4480,104,4640,78,4800,91C4960,104,5120,156,5280,182C5440,208,5600,208,5760,199.3C5920,191,6080,173,6240,164.7C6400,156,6560,156,6720,164.7C6880,173,7040,191,7200,199.3C7360,208,7520,208,7680,199.3C7840,191,8000,173,8160,173.3C8320,173,8480,191,8640,177.7C8800,165,8960,121,9120,112.7C9280,104,9440,130,9600,125.7C9760,121,9920,87,10080,82.3C10240,78,10400,104,10560,99.7C10720,95,10880,61,11040,65C11200,69,11360,113,11440,134.3L11520,156L11520,260L11440,260C11360,260,11200,260,11040,260C10880,260,10720,260,10560,260C10400,260,10240,260,10080,260C9920,260,9760,260,9600,260C9440,260,9280,260,9120,260C8960,260,8800,260,8640,260C8480,260,8320,260,8160,260C8000,260,7840,260,7680,260C7520,260,7360,260,7200,260C7040,260,6880,260,6720,260C6560,260,6400,260,6240,260C6080,260,5920,260,5760,260C5600,260,5440,260,5280,260C5120,260,4960,260,4800,260C4640,260,4480,260,4320,260C4160,260,4000,260,3840,260C3680,260,3520,260,3360,260C3200,260,3040,260,2880,260C2720,260,2560,260,2400,260C2240,260,2080,260,1920,260C1760,260,1600,260,1440,260C1280,260,1120,260,960,260C800,260,640,260,480,260C320,260,160,260,80,260L0,260Z"></path></svg>