<?xml version="1.0" encoding="iso-8859-1"?>
<!-- Uploaded to: SVG Repo, www.svgrepo.com, Generator: SVG Repo Mixer Tools -->
<svg version="1.1" id="Layer_1" xmlns="http://www.w3.org/2000/svg" xmlns:xlink="http://www.w3.org/1999/xlink" 
	 viewBox="0 0 512 512" xml:space="preserve">
<polygon style="fill:#DCE0E2;" points="476.209,420.893 57.224,420.893 29.508,372.542 503.923,372.542 "/>
<g style="opacity:0.15;">
	<polygon style="fill:#202020;" points="30.944,372.542 58.661,420.893 86.374,420.893 58.661,372.542 	"/>
</g>
<path style="fill:#C17727;" d="M256.571,209.873l-2.89-1.158c-3.8-1.975-7.737-3.544-11.749-4.71l-109.955-44.057L113.6,184.988l0,0
	c-0.078,0.106-0.154,0.206-0.229,0.311l0,0L94.992,210.34l73.151,89.436c3.158,5.27,7.112,10.152,11.825,14.461l0.002,0.002l0,0
	c1.717,1.57,3.525,3.066,5.439,4.471c28.907,21.215,69.541,14.981,90.757-13.926c21.214-28.904,14.982-69.537-13.927-90.752
	c-1.916-1.406-3.882-2.687-5.896-3.85L256.571,209.873z"/>
<path style="fill:#D78C33;" d="M354.358,189.73c-4.687,0-9.291,0.351-13.8,0.982l-111.93,7.962l13.303,5.331
	c4.014,1.166,7.949,2.735,11.749,4.71l2.89,1.158l-0.227,0.31c2.013,1.163,3.979,2.444,5.896,3.85
	c28.909,21.214,35.141,61.847,13.927,90.752c-21.216,28.907-61.852,35.141-90.757,13.926c-1.914-1.406-3.723-2.901-5.439-4.471
	l-0.002-0.002c-4.714-4.309-8.668-9.19-11.825-14.461l-58.629-71.679c-15.355,15.46-24.847,36.751-24.847,60.265
	c0,42.094,30.416,77.061,70.467,84.182h250.63c28.322-17.33,47.225-48.547,47.225-84.182
	C452.988,233.888,408.831,189.73,354.358,189.73z"/>
<g style="opacity:0.15;">
	<path style="fill:#202020;" d="M110,288.361c0-16.281,4.556-31.492,12.452-44.443l-12.94-15.821
		c-15.355,15.46-24.847,36.751-24.847,60.265c0,42.094,30.416,77.061,70.467,84.182h25.333C140.417,365.421,110,330.454,110,288.361
		z"/>
</g>
<path style="fill:#C17727;" d="M228.628,198.673l109.989-7.824c-3.216-3.788-6.905-7.27-11.087-10.341
	c-1.914-1.406-3.882-2.685-5.898-3.85l0.225-0.31l-2.888-1.159c-3.8-1.974-7.737-3.543-11.749-4.709l-109.953-44.057l-18.379,25.04
	c-0.078,0.103-0.154,0.205-0.227,0.309l-15.245,20.769L228.628,198.673z"/>
<g>
	<path style="fill:#FFF1CE;" d="M38.131,103.083c-6.323,8.612-5.528,20.256,1.287,27.934c-9.37-4.199-20.713-1.467-27.039,7.147
		c-7.276,9.914-5.136,23.847,4.777,31.124c9.913,7.273,23.848,5.138,31.125-4.776l52.215,38.326l25.747-35.083L74.03,129.43
		c7.276-9.914,5.138-23.848-4.779-31.124C59.343,91.031,45.409,93.168,38.131,103.083z"/>
	<path style="fill:#FFF1CE;" d="M139.32,95.908c7.276-9.914,5.138-23.846-4.777-31.124c-9.913-7.276-23.846-5.138-31.125,4.776
		c-6.318,8.612-5.523,20.256,1.289,27.935c-9.37-4.201-20.716-1.467-27.039,7.146c-0.521,0.713-0.982,1.452-1.411,2.202
		c2.97,6.38,2.818,13.989-0.816,20.384c1.216,2.609,2.949,5.011,5.177,7.04l3.805,2.792c9.719,5.669,22.34,3.204,29.146-6.067
		l52.217,38.325l25.749-35.083L139.32,95.908z"/>
</g>
<polygon style="fill:#C0C9CC;" points="57.224,420.893 57.224,451.526 104.463,451.526 130.667,451.526 475.833,451.526 
	475.833,420.893 "/>
<g style="opacity:0.15;">
	<rect x="57.227" y="420.888" style="fill:#202020;" width="25.43" height="30.633"/>
</g>
<path style="fill:#202020;" d="M510.911,368.494c-1.444-2.494-4.106-4.028-6.988-4.028h-74.708
	c20.254-19.811,31.85-46.922,31.85-76.106c0-58.838-47.869-106.707-106.707-106.707c-4.085,0-8.273,0.266-12.477,0.76
	c-2.949-3.085-6.155-5.906-9.569-8.413c-1.408-1.034-2.874-2.029-4.38-2.973c-0.827-0.943-1.873-1.694-3.068-2.173l-2.533-1.016
	c-3.994-2.046-8.185-3.726-12.464-4.996L200.271,118.93c-3.422-1.371-7.336-0.252-9.516,2.718l-0.953,1.299l-40.073-29.414
	c4.729-12.434,0.826-27.012-10.408-35.257c-5.243-3.849-11.445-5.882-17.934-5.882c-9.632,0-18.784,4.632-24.482,12.392
	c-4.956,6.753-6.729,15.097-5.416,22.982c-5.392,0.747-10.482,2.945-14.723,6.3c-0.863-0.801-1.77-1.563-2.734-2.269
	C68.79,87.95,62.589,85.916,56.1,85.916c-9.633,0-18.784,4.633-24.479,12.391c-4.958,6.753-6.733,15.098-5.42,22.985
	c-8.064,1.118-15.461,5.464-20.332,12.098c-9.897,13.486-6.977,32.513,6.511,42.415c5.243,3.848,11.445,5.881,17.934,5.881
	c6.877,0,13.507-2.36,18.81-6.533l40.083,29.421l-0.727,0.99c-2.181,2.97-2.074,7.04,0.258,9.893l10.107,12.357
	c-14.389,16.902-22.257,38.128-22.257,60.551c0,31.067,15.169,59,39.046,76.106H29.508c-2.882,0-5.544,1.535-6.988,4.028
	c-1.445,2.492-1.452,5.567-0.019,8.065l26.646,46.485v28.482c0,4.462,3.615,8.077,8.077,8.077h47.239
	c4.462,0,8.077-3.615,8.077-8.077c0-4.462-3.615-8.077-8.077-8.077H65.301v-14.479h402.455v14.479h-337.09
	c-4.462,0-8.077,3.615-8.077,8.077c0,4.462,3.615,8.077,8.077,8.077h345.166c4.462,0,8.077-3.615,8.077-8.077v-27.826l27.021-47.142
	C512.363,374.06,512.357,370.986,510.911,368.494z M198.046,139.014c0.001-0.001,0.001-0.002,0.002-0.003l2.026-2.76l104.141,41.728
	c0.247,0.098,0.496,0.184,0.751,0.258c3.533,1.027,6.992,2.413,10.28,4.121c0.234,0.121,0.472,0.23,0.716,0.328l0.555,0.223
	c0.334,0.274,0.692,0.521,1.072,0.741c0.303,0.174,0.604,0.352,0.902,0.533l-88.583,6.3l-28.565-11.445l-25.248-10.117
	L198.046,139.014z M223.77,323.222c-12.145,0-23.758-3.812-33.58-11.02c-1.618-1.189-3.215-2.502-4.748-3.904
	c-0.009-0.008-0.017-0.015-0.025-0.023c-4.06-3.71-7.541-7.966-10.346-12.649c-0.202-0.337-0.428-0.658-0.676-0.962l-58.628-71.681
	c-0.001-0.001-0.001-0.001-0.002-0.002l-10.557-12.907l1.77-2.412c0.011-0.014,0.023-0.027,0.033-0.041l25.747-35.083
	c0.003-0.004,0.005-0.009,0.009-0.014l2.018-2.749l25.628,10.268l0,0l51.144,20.492l27.372,10.967
	c0.246,0.098,0.495,0.184,0.748,0.258c3.536,1.028,6.995,2.416,10.28,4.122c0.235,0.122,0.474,0.232,0.72,0.331l0.55,0.221
	c0.336,0.275,0.696,0.523,1.075,0.743c1.775,1.025,3.511,2.158,5.158,3.369c12.241,8.984,20.252,22.196,22.554,37.205
	c2.304,15.008-1.376,30.016-10.36,42.256C258.985,314.541,241.833,323.219,223.77,323.222z M125.466,155.169l-0.953,1.298
	l-15.575-11.433c1.932-0.946,3.776-2.071,5.472-3.405l14.706,10.794C127.696,152.961,126.413,153.878,125.466,155.169z
	 M86.214,112.819c-0.008-0.062-0.015-0.126-0.023-0.188c-0.04-0.325-0.068-0.65-0.117-0.976c-0.187-1.217-0.452-2.409-0.778-3.578
	c2.668-2.843,6.346-4.443,10.33-4.443c2.01,0,3.953,0.415,5.777,1.232c3.474,1.556,7.561,0.477,9.815-2.59
	c2.253-3.068,2.057-7.293-0.47-10.14c-4.401-4.961-4.745-12.446-0.822-17.795c2.705-3.683,6.883-5.796,11.461-5.796
	c3.027,0,5.924,0.951,8.376,2.752c6.307,4.629,7.673,13.526,3.043,19.834c-2.638,3.596-1.864,8.651,1.733,11.289l45.704,33.547
	l-7.839,10.679c-0.099,0.132-0.197,0.265-0.293,0.398l-8.061,10.982l-45.705-33.546c-1.44-1.056-3.113-1.566-4.773-1.566
	c-2.484,0-4.934,1.142-6.517,3.298c-2.702,3.681-6.876,5.792-11.45,5.792c-2.371,0-4.708-0.599-6.783-1.734l-3.053-2.241
	c-0.43-0.414-0.831-0.852-1.203-1.313C86.191,122.316,86.762,117.58,86.214,112.819z M53.061,158.002
	c-1.44-1.056-3.113-1.566-4.773-1.566c-2.484,0-4.934,1.142-6.517,3.299c-2.704,3.682-6.88,5.795-11.458,5.795
	c-3.027,0-5.925-0.952-8.376-2.75c-6.307-4.63-7.673-13.528-3.046-19.834c2.701-3.679,6.873-5.789,11.447-5.789
	c2.01,0,3.954,0.415,5.778,1.232c3.477,1.556,7.563,0.477,9.814-2.592c2.253-3.069,2.057-7.293-0.471-10.14
	c-4.401-4.959-4.745-12.443-0.817-17.793c2.704-3.683,6.88-5.796,11.457-5.796c3.027,0,5.922,0.951,8.375,2.753
	c1.923,1.412,3.427,3.242,4.422,5.338c0.014,0.031,0.023,0.065,0.038,0.096c0.228,0.49,0.421,0.992,0.591,1.498
	c0.028,0.085,0.053,0.171,0.079,0.256c0.134,0.428,0.246,0.858,0.338,1.293c0.024,0.11,0.046,0.22,0.067,0.33
	c0.087,0.463,0.152,0.929,0.193,1.397c0.004,0.053,0.012,0.104,0.016,0.157c0.208,2.772-0.395,5.582-1.8,8.052
	c-0.03,0.052-0.051,0.108-0.079,0.16c-0.251,0.43-0.522,0.85-0.821,1.256c-2.638,3.596-1.862,8.65,1.732,11.289l6.565,4.819
	c0.008,0.005,0.014,0.012,0.022,0.018l3.805,2.792c0.004,0.003,0.01,0.006,0.014,0.01l35.298,25.91l-16.187,22.056L53.061,158.002z
	 M92.743,288.361c0-17.549,5.811-34.227,16.517-47.817l52.268,63.902c3.55,5.814,7.908,11.102,12.962,15.727
	c0.01,0.009,0.019,0.017,0.027,0.025c1.965,1.797,4.02,3.486,6.113,5.023c3.351,2.46,6.869,4.602,10.514,6.436
	c10.079,5.07,21.162,7.719,32.621,7.719c0.002,0,0.004,0,0.006,0c-0.001,0,0.001,0,0.001,0c0.058,0,0.116-0.002,0.176-0.002
	c16.404-0.04,32.214-5.661,44.898-15.573c0.572-0.447,1.137-0.902,1.696-1.367c0.136-0.113,0.276-0.222,0.411-0.336
	c3.53-2.977,6.787-6.304,9.72-9.943c0.684-0.848,1.355-1.707,2.002-2.589c0.722-0.982,1.416-1.978,2.084-2.988
	c10.015-15.139,13.995-33.207,11.223-51.275c-2.957-19.274-13.244-36.242-28.965-47.779c-1.412-1.036-2.874-2.03-4.368-2.967
	c-0.057-0.065-0.115-0.128-0.172-0.191l78.654-5.595c0.183-0.013,0.365-0.032,0.547-0.057c4.285-0.6,8.55-0.905,12.68-0.905
	c49.931,0,90.553,40.622,90.553,90.553c0,31.039-15.46,59.324-41.474,76.106H155.862C119.246,357.62,92.743,325.725,92.743,288.361z
	 M471.53,412.817H61.903l-18.456-32.198h111.685h250.63h84.22L471.53,412.817z"/>
<g style="opacity:0.15;">
	<path style="fill:#202020;" d="M217.358,317.909c-1.914-1.406-3.723-2.901-5.439-4.471l-0.002-0.002
		c-4.714-4.309-8.668-9.19-11.825-14.461l-69.007-84.37c-0.001-0.001-0.001-0.001-0.002-0.002c-4.133-5.054-1.079-9.236-1.079-9.236
		l0,0l15.317-20.868c0.075-0.106,0.152-0.206,0.229-0.311l10.663-14.529l-24.236-9.711l-18.376,25.039
		c-0.078,0.106-0.154,0.206-0.229,0.311L94.993,210.34l73.151,89.436c3.158,5.27,7.112,10.152,11.825,14.461l0.002,0.002
		c1.717,1.57,3.525,3.066,5.439,4.471c16.72,12.273,37.356,15.331,55.897,10.161C232.905,326.957,224.748,323.333,217.358,317.909z"
		/>
</g>
<g style="opacity:0.15;">
	<path style="fill:#202020;" d="M333.003,185.03l-57.421,4.084l-4.981-1.996l-2.217,0.157l-61.426-24.612
		c0,0-0.001-0.001-0.002-0.001c-3.426-1.373-2.083-3.792-1.605-4.485l13.066-17.8c0.073-0.104,0.15-0.206,0.227-0.309l2.881-3.924
		l-24.256-9.719l-18.379,25.04c-0.078,0.103-0.154,0.205-0.227,0.309l-15.245,20.769l65.213,26.129l109.989-7.824
		C336.887,188.814,335.009,186.873,333.003,185.03z"/>
</g>
</svg>