<?xml version="1.0" standalone="no"?>
<!DOCTYPE svg PUBLIC "-//W3C//DTD SVG 20010904//EN"
 "http://www.w3.org/TR/2001/REC-SVG-20010904/DTD/svg10.dtd">
<svg version="1.0" xmlns="http://www.w3.org/2000/svg"
 width="700.000000pt" height="700.000000pt" viewBox="0 0 700.000000 700.000000"
 preserveAspectRatio="xMidYMid meet">
<metadata>
Created by potrace 1.14, written by Peter Selinger 2001-2017
</metadata>
<g transform="translate(0.000000,700.000000) scale(0.100000,-0.100000)"
fill="#000000" stroke="none">
<path d="M1310 6985 c-232 -49 -395 -245 -427 -513 -6 -51 -7 -53 -32 -48
-155 33 -265 25 -368 -25 -121 -58 -180 -167 -187 -349 -11 -256 175 -469 420
-482 63 -3 65 -8 61 -97 l-2 -53 -80 -27 c-69 -24 -143 -59 -229 -108 -45 -26
-117 -96 -141 -137 -56 -95 -26 -186 93 -281 59 -47 225 -135 254 -135 9 0 19
-4 22 -9 3 -5 21 -12 41 -15 19 -4 37 -11 40 -16 8 -13 9 -385 1 -450 -9 -71
-36 -182 -47 -194 -5 -6 -9 -16 -9 -23 0 -20 -62 -112 -108 -161 -53 -55 -94
-117 -141 -211 -125 -247 -103 -433 57 -502 61 -27 85 -31 188 -34 128 -4 245
31 316 92 19 17 16 24 39 -82 6 -27 13 -61 15 -75 3 -14 12 -50 20 -80 205
-721 774 -1380 1487 -1723 113 -55 316 -137 337 -137 11 0 9 -58 -5 -167 -3
-18 -5 -62 -6 -98 l-2 -65 -36 -1 c-20 0 -112 0 -206 0 -93 -1 -186 -5 -206
-11 -75 -21 -132 -100 -133 -183 -1 -65 28 -121 83 -160 41 -29 48 -30 178
-35 l135 -5 -46 -32 c-130 -92 -108 -283 41 -339 70 -27 127 -12 273 71 30 18
93 52 140 77 233 124 267 143 294 167 79 72 87 200 15 267 -140 131 -197 233
-214 382 -6 49 -5 53 12 49 10 -3 36 -8 58 -12 22 -3 54 -8 70 -11 192 -35
603 -39 848 -8 23 3 48 7 54 9 10 3 11 -22 7 -108 -4 -62 -8 -114 -10 -116 -1
-2 -92 -3 -201 -3 -109 0 -216 -4 -238 -10 -50 -13 -119 -80 -133 -130 -22
-79 12 -171 80 -215 39 -26 50 -28 182 -33 90 -3 133 -8 118 -13 -12 -5 -36
-20 -52 -34 -146 -122 -41 -365 147 -339 52 7 569 281 620 329 97 91 81 230
-35 307 -12 8 -40 40 -62 71 -64 91 -95 176 -107 290 l-5 56 133 37 c575 160
1058 496 1381 961 157 226 280 478 359 735 16 52 34 109 39 125 11 35 56 242
64 298 18 115 22 147 33 252 10 95 10 540 0 645 -17 171 -32 277 -62 425 -98
485 -326 1061 -446 1126 -37 19 -77 1 -118 -54 -40 -54 -59 -87 -156 -271
-151 -289 -296 -489 -463 -639 -26 -23 -49 -44 -52 -48 -3 -3 -23 -18 -45 -34
-22 -17 -42 -32 -45 -35 -3 -3 -23 -17 -45 -31 -234 -152 -484 -235 -800 -264
-70 -7 -274 -7 -325 -1 -19 3 -55 7 -80 10 -101 12 -250 61 -350 113 -156 82
-302 228 -434 432 -69 106 -126 199 -126 205 0 18 -306 534 -330 556 -3 3 -26
32 -52 66 -47 61 -47 61 -25 71 38 18 136 113 163 159 121 206 95 465 -63 627
-116 119 -299 170 -440 123 -71 -24 -161 -92 -208 -157 -52 -73 -51 -72 -52
-46 -1 43 -15 113 -35 172 -65 196 -189 316 -378 366 -61 16 -252 19 -320 4z"/>
</g>
</svg>
